<?xml version="1.0" encoding="UTF-8"?>
<svg id="Calque_2" data-name="Calque 2" xmlns="http://www.w3.org/2000/svg" viewBox="0 0 144.79 146.43">
  <defs>
    <style>
      .cls-1 {
        fill: #111010;
        fill-rule: evenodd;
        stroke-width: 0px;
      }
    </style>
  </defs>
  <g id="Calque_1-2" data-name="Calque 1">
    <path class="cls-1" d="M144.08,10c-.34-3.55-4.51-7.59-7.5-8.5-4.05-2.58-17.57-.55-23-1.5-3.44,2.91-12.06-1.04-16,1-.76.4-1.95,2.12-3,2.5-4.42,1.61-6.08-1.57-9-2.5h-53C20.4,1,6.99,2.58,4.08,11c-3.47,5.57.39,20.44-1.5,28C.11,48.87,1.58,63.89,1.58,75.5v11c-.76,3.34-2.48,16.21-1,20.5.69,1.98,3.34,3.86,4,6,.79,2.55-1.05,3.99,0,7,1.08,3.1,5.51,7.55,7,10.5,2.93,5.79,2.43,11.74,9,14,3.86,2.4,12.09-.69,17,.5,10.12,2.45,20.18,1,33,1,9.11,0,20.52.77,28-1,2.97-.7,5.58.68,7.5,1h24.5c3.63-3.81,10.36-6.39,12-12V52c.48-1.99,1-4.37,1-7.5.01-9.17,1-15.38,1-24.5,0-2.86.7-8.07-.5-10ZM33.58,141h-13c.16-4.98-4.69-10.22-8-14,2.94-2.99,16.1,9.06,21.33,12.62-.33.38-.33.88-.33,1.38ZM91.58,142s-5.83-1.62-6.5-1-5,2.5-5,2.5l-8-.5h-8s7.37-4.92,8.5-6c1.13-1.08,13,.5,13,.5l6.5,2.5,2,2.5-2.5-.5ZM139.08,45c-.54,4.19.89,9.97-1,13,.19,5.93,2.14,19.91-3.5,11s.33,5.33.5,8c.72,1.96,2.91,3.95,3.5,6v51c-2.87,2.69-6.89,6.82-11,8-4.52,1.3-19.72-.17-22-1-1.57-.57-2.69-2.84-4-3.5-3.84-1.93-8.51-.35-13-1.5-5.81-1.49-10.2-3.06-18-3-2.19,2.3-5.56,5.09-8.5,6.5-1.83.33-3.67.67-5.5,1-1.92.62-4.52,2.01-6.5,2.5-8.08,1.99-15.34-8.16-19-11.5-3.95-3.61-8.48-5.95-11.5-10.5-2.09-3.15-3.21-8.14-5.5-11-.85-1.06-7.49-4.02-9-5-1.65-8.65-1.38-24.15.5-32V21.5c2.08-6.88,9.73-11.09,13.5-16.5h48.5c18.23,0,30.27,7.83,26,4-4.67-3.92-.57-3.09,0-3,11.54-.97,26.39-1.05,39.5-1,2.12,2.12,4.94,2.74,6,6,1.11,1.71.5,6.38.5,9,0,8.06.22,19.36-.5,25ZM104.08,93c-.68-1.07-2.19-1.58-3-2.5-2.71-3.07-4.24-6.98-7-10-.75-.82-2.27-1.17-3-2-1.31-1.49-1.5-3.71-3-5,.31-4.97,4.25-4.61,7-7,2.48-2.16,5.06-5.43,8-7,1.82-.97,3.57-.74,5-2,1.3-1.14,2.13-2.88,3.5-4-.5-4.36-15.61-9.31-20-11-8.61-3.32-17.52-8.3-26-12-1.67-.17-3.33-.33-5-.5-3.54-1.11-7.74-4.01-11-5.5-1.5-.33-3-.67-4.5-1-5.38-2.7-17.1-9.88-23-9.5.55,4.96,5.37,6.54,8,9.5,3.87,4.35,5.5,9.72,11,12.5,1.46,7.55.91,16.43,2.5,23,1.75,7.23-.68,18.09,1,25,1.16,4.77.11,11.33,1,15,1.24,5.12-1.5,12.34,1,16v14c1.17-.31,1.57-.58,2.5-1,.89-4.48,1.19-10.63,3-14.5,1.6-3.42,4.5-7.66,5.5-11.5v-11c1.51-6.21,1.41-15.51,3-22,1.5-6.12-2.24-19.43.5-24,.74-1.24-.12-.59,1.5-1,1.76-.67,6.01,1.64,8,2.5,5.99,2.57,12.76,3.9,18.5,6.5-3.51,3.34-6.84,6.83-10,10.5-3.57,4.15-6.91,8.48-10,13,1.62.38,3.14,1.02,4.5,2,2.7,1.94,3.19,3.89,5.5,6,1.76,1.6,3.76,1.76,6,3,2.94,1.62,4.62,4.82,7,7,8.78,8.04,17.81,15.37,27.5,22.5h1c-1.97-6.83-9.25-12.51-13.5-17.5-1.56-1.83-1.66-4.38-3-6.5Z"/>
  </g>
</svg>